<svg version="1.0" xmlns="http://www.w3.org/2000/svg" width="332.000000pt" height="215.000000pt" viewBox="0 0 332.000000 215.000000" preserveAspectRatio="xMidYMid meet">
    <g transform="translate(0.000000,215.000000) scale(0.100000,-0.100000)" fill="#000000" stroke="none">
        <path d="M107 2043 c-4 -3 -7 -442 -7 -975 l0 -968 165 0 165 0 0 415 0 415 430 0 430 0 0 150 0 150 -428 2 -427 3 -3 253 -2 252 490 0 490 0 0 155 0 155 -648 0 c-357 0 -652 -3 -655 -7z"/>
        <path d="M1560 1940 l0 -110 150 0 150 0 0 110 0 110 -150 0 -150 0 0 -110z"/>
        <path d="M2050 1460 l0 -540 190 0 190 0 0 340 0 339 106 91 105 90 63 0 c57 0 65 -3 94 -33 l32 -33 0 -397 0 -397 190 0 190 0 0 428 0 427 -113 113 -112 112 -188 0 -188 0 -84 -70 c-46 -38 -86 -70 -89 -70 -3 0 -6 32 -6 70 l0 70 -190 0 -190 0 0 -540z"/>
        <path d="M1560 1335 l0 -416 148 3 147 3 3 413 2 412 -150 0 -150 0 0 -415z"/>
        <path d="M670 720 l0 -70 167 0 167 0 28 -27 c18 -17 28 -37 28 -55 l0 -28 -162 0 -163 0 -72 -72 -73 -72 0 -76 0 -76 73 -72 72 -72 115 0 114 0 48 47 48 47 0 -47 0 -47 105 0 105 0 0 268 0 267 -78 78 -77 77 -223 0 -222 0 0 -70z m390 -338 c0 -33 -8 -45 -58 -95 -56 -55 -59 -57 -112 -57 -72 0 -100 25 -100 89 0 35 6 51 27 73 26 27 29 28 135 28 l108 0 0 -38z"/>
        <path d="M1440 445 l0 -345 105 0 105 0 0 208 0 208 43 42 43 42 87 0 87 0 0 95 0 95 -72 0 -72 0 -58 -57 -58 -57 0 57 0 57 -105 0 -105 0 0 -345z"/>
        <path d="M2020 445 l0 -345 100 0 100 0 0 209 0 209 78 71 c75 69 79 71 129 71 45 0 54 -4 77 -31 l26 -31 0 -249 0 -249 100 0 100 0 0 219 0 219 66 61 c63 57 70 61 116 61 41 0 53 -5 73 -27 l24 -28 1 -252 0 -253 105 0 105 0 0 268 0 267 -78 78 -77 77 -119 0 -118 0 -60 -55 c-32 -30 -65 -55 -71 -55 -7 0 -34 25 -60 55 l-48 55 -124 0 -123 0 -55 -50 c-30 -27 -58 -50 -61 -50 -3 0 -6 23 -6 50 l0 50 -100 0 -100 0 0 -345z"/>
    </g>
</svg>
