<svg width="512pt" height="512pt" viewBox="0 0 512 512" xmlns="http://www.w3.org/2000/svg">
    <g transform="translate(0 512) scale(.1 -.1)">
        <path d="m1945 5113c-92-25-469-210-659-322-616-367-990-812-1071-1275-38-221-3-491 91-705 22-49 24-67 24-203 0-246 41-530 83-576 28-30 77-29 107 3l23 25-22 112c-30 159-41 263-41 413 0 448 170 839 506 1165 122 119 184 168 330 264 670 438 1621 542 2287 249 83-36 104-36 137 0 26 27 25 60-2 92-49 56-380 163-618 200-58 9-189 19-291 22l-186 6-232 243c-168 176-244 248-277 264-45 22-148 35-189 23zm112-154c19-6 100-83 213-202l183-192-59-7c-33-4-119-19-191-34l-133-26-101 87c-56 48-112 91-125 95-47 18-94-16-94-68 0-35 25-65 108-129 17-14 32-28 32-32s-30-17-67-29l-67-21-47 44c-56 52-88 57-124 20-31-30-32-64-4-99 12-15 20-28 18-29s-60-30-129-64c-510-253-886-655-1046-1117-20-59-39-105-41-102-12 12-32 174-33 264-2 582 512 1139 1445 1569 183 84 209 91 262 72z"/>
        <path d="m3947 4189c-25-15-38-54-28-83 5-13 56-59 113-104 325-252 535-532 652-870 55-158 76-276 83-454l6-157-114-54c-564-269-1089-327-1470-163-168 73-336 211-382 313-67 152-93 361-63 513 22 109 86 245 159 334 67 81 75 121 31 155-15 12-36 21-47 21-20 0-103-79-143-135l-21-29-25 54c-82 179-270 294-547 335-142 22-289 23-326 3-34-18-77-62-94-95-8-15-11-168-11-509v-487l25-43c28-48 73-79 126-89 56-10 292 14 398 41 107 27 202 68 271 118l47 34 25-102c14-55 29-108 33-117 5-14-6-17-77-23-212-19-389-79-533-181-62-44-147-129-179-178-10-15-23-27-30-27-28 0-186 54-186 65 0 6 16 35 35 65 40 64 43 87 14 124-30 39-79 36-115-6-46-56-94-170-111-265-21-125-13-378 16-488 45-171 147-329 272-421 50-37 51-37 107-27l56 10 61-51c34-28 82-66 108-83 33-23 47-39 47-55 0-36-46-95-98-125-87-52-214-34-472 64-393 149-702 401-871 709-47 85-57 95-99 96-40 1-73-31-73-70 0-96 256-424 446-572 65-50 72-59 123-168 117-250 269-475 434-646 226-234 455-350 715-362 94-5 115-3 145 13 69 36 88 126 39 194-12 17-33 57-45 88-21 50-24 72-24 217 0 188-17 273-82 410-2 3 32 19 75 35 147 53 247 122 247 169 0 10-9 29-21 44-29 37-65 33-162-18-104-56-127-63-127-41 0 39-47 98-120 150-123 89-114 75-95 138 15 52 12 101-10 158-4 10 8 22 37 37 24 12 78 47 121 77 97 68 171 91 337 105 69 6 140 13 158 16l32 6v-48c0-76-18-171-51-267-27-77-28-90-17-114 15-32 54-49 92-39 55 14 113 202 123 401 5 104 3 126-12 158-28 61-91 81-174 57-19-5-91-14-160-20-207-17-299-49-449-154-60-42-83-53-89-44-4 7-9 83-9 170-1 122-5 163-18 189-16 32-15 34 11 72 65 93 206 188 353 237 81 26 233 50 324 50h69l57-55c163-160 367-263 611-310 361-69 838 17 1298 236 220 105 227 116 218 357-9 259-63 476-176 707-139 283-352 537-623 740-100 76-131 87-171 64zm-1893-464c107-8 254-43 326-80 78-40 152-114 186-188 27-58 29-70 29-193v-130l-38-77c-78-157-229-230-534-258-96-8-127-8-138 1-12 10-15 42-15 151v139h220 221l24 25c31 30 32 71 3 102-21 23-24 23-245 23h-223v54 54l114 4c131 4 156 16 156 75 0 62-24 73-155 73h-115v110c0 121 6 133 65 125 17-2 70-7 119-10zm-329-1645c55-18 104-36 110-41 5-5 8-58 6-122-3-124 18-253 63-386 29-83 24-105-24-116-44-10-65 1-119 61-57 65-103 151-132 249-27 90-41 402-18 393 8-3 59-20 114-38zm-192-1214c133-50 317-96 383-96 56 0 157 29 199 56 22 14 24 14 35-6 37-69 43-108 49-310l6-205 37-77 37-78h-35c-61 0-187 31-266 65-240 103-484 356-672 697l-37 67 83-38c46-21 127-55 181-75z"/>
        <path d="m3785 3677c-57-27-117-88-141-144-24-55-23-157 3-214 80-178 315-219 450-77 120 125 89 335-64 425-67 39-178 44-248 10zm175-142c60-31 78-116 37-176-75-112-252-29-217 101 21 78 106 113 180 75z"/>
    </g>
</svg>